<svg width="35" height="40" viewBox="0 0 35 40" fill="none" xmlns="http://www.w3.org/2000/svg">
<g clip-path="url(#clip0_329_779)">
<path d="M11.3941 34.0697C9.47603 32.4179 8.91612 28.9471 9.71522 26.4326C11.1008 28.018 13.0207 28.5202 15.0093 28.8036C18.0793 29.2411 21.0943 29.0775 23.9462 27.7555C24.2724 27.6041 24.5739 27.4029 24.9304 27.199C25.198 27.9305 25.2676 28.6689 25.1742 29.4204C24.9469 31.2507 23.98 32.6646 22.4423 33.7364C21.8274 34.1651 21.1767 34.5483 20.5417 34.9525C18.5906 36.1949 18.0628 37.6516 18.7959 39.7705C18.8133 39.8224 18.8289 39.874 18.8683 40C17.8722 39.5798 17.1445 38.9682 16.5901 38.1641C16.0045 37.3156 15.726 36.3769 15.7113 35.3611C15.7039 34.8668 15.7039 34.3681 15.6334 33.8807C15.4611 32.6926 14.8691 32.1607 13.7538 32.13C12.6092 32.0986 11.7038 32.7652 11.4637 33.8151C11.4454 33.8956 11.4188 33.9752 11.3922 34.0688L11.3941 34.0697Z" fill="white"/>
<path d="M11.3941 34.0697C9.47603 32.4179 8.91612 28.9471 9.71522 26.4326C11.1008 28.018 13.0207 28.5202 15.0093 28.8036C18.0793 29.2411 21.0943 29.0775 23.9462 27.7555C24.2724 27.6041 24.5739 27.4029 24.9304 27.199C25.198 27.9305 25.2676 28.6689 25.1742 29.4204C24.9469 31.2507 23.98 32.6646 22.4423 33.7364C21.8274 34.1651 21.1767 34.5483 20.5417 34.9525C18.5906 36.1949 18.0628 37.6516 18.7959 39.7705C18.8133 39.8224 18.8289 39.874 18.8683 40C17.8722 39.5798 17.1445 38.9682 16.5901 38.1641C16.0045 37.3156 15.726 36.3769 15.7113 35.3611C15.7039 34.8668 15.7039 34.3681 15.6334 33.8807C15.4611 32.6926 14.8691 32.1607 13.7538 32.13C12.6092 32.0986 11.7038 32.7652 11.4637 33.8151C11.4454 33.8956 11.4188 33.9752 11.3922 34.0688L11.3941 34.0697Z" fill="url(#paint0_linear_329_779)"/>
<path d="M0.446777 26.0137C0.446777 26.0137 6.12643 23.407 11.822 23.407L16.1162 10.8861C16.2769 10.2806 16.7464 9.86912 17.2763 9.86912C17.8063 9.86912 18.2757 10.2806 18.4365 10.8861L22.7307 23.407C29.4762 23.407 34.1058 26.0137 34.1058 26.0137C34.1058 26.0137 24.4585 1.25321 24.4397 1.20353C24.1628 0.471477 23.6953 0 23.0651 0H11.4885C10.8583 0 10.4097 0.471477 10.114 1.20353C10.0931 1.25227 0.446777 26.0137 0.446777 26.0137Z" fill="white"/>
</g>
<defs>
<linearGradient id="paint0_linear_329_779" x1="9.36283" y1="40" x2="27.4648" y2="30.9218" gradientUnits="userSpaceOnUse">
<stop stop-color="#D83333"/>
<stop offset="1" stop-color="#F041FF"/>
</linearGradient>
<clipPath id="clip0_329_779">
<rect width="33.7274" height="40" fill="white" transform="translate(0.446777)"/>
</clipPath>
</defs>
</svg>
