<svg width="46" height="38" viewBox="0 0 46 38" fill="none" xmlns="http://www.w3.org/2000/svg">
<g clip-path="url(#clip0_333_934)">
<path d="M17.3569 21.2898C17.5204 18.3444 18.9457 15.7419 21.1053 13.903C23.2185 12.0952 26.0569 10.9888 29.1728 10.9888C32.2733 10.9888 35.1116 12.0937 37.2249 13.903C39.3845 15.7419 40.8036 18.3444 40.9733 21.2898C41.1368 24.3132 39.9321 27.1339 37.8265 29.2221C35.6669 31.3416 32.6127 32.6818 29.1728 32.6818C25.7329 32.6818 22.6632 31.3509 20.5191 29.2221C18.4058 27.1339 17.2026 24.3288 17.3723 21.3054L17.3569 21.2898Z" fill="white"/>
<path d="M23.8198 20.9291C23.9038 19.4155 24.6363 18.0781 25.7461 17.1331C26.832 16.2041 28.2906 15.6355 29.8919 15.6355C31.4852 15.6355 32.9438 16.2033 34.0298 17.1331C35.1396 18.0781 35.8688 19.4155 35.956 20.9291C36.0401 22.4828 35.4209 23.9323 34.3389 25.0054C33.2291 26.0946 31.6596 26.7833 29.8919 26.7833C28.1242 26.7833 26.5467 26.0994 25.4448 25.0054C24.3588 23.9323 23.7405 22.4908 23.8277 20.9371L23.8198 20.9291Z" fill="#265787"/>
<path d="M14.3075 24.1325C14.3178 24.7251 14.5049 25.8783 14.7855 26.7753C15.3753 28.6813 16.3789 30.4432 17.7661 31.9888C19.1929 33.5825 20.9527 34.8639 22.982 35.7769C25.1144 36.7299 27.4291 37.2184 29.831 37.2184C32.2328 37.2152 34.5475 36.7187 36.6799 35.7528C38.7092 34.8319 40.469 33.5505 41.8959 31.9488C43.291 30.3871 44.2898 28.6253 44.8764 26.7193C45.1737 25.7582 45.3615 24.7812 45.4368 23.8041C45.5105 22.8431 45.4797 21.8741 45.3441 20.9051C45.0793 19.0231 44.4325 17.2532 43.4416 15.6515C42.5379 14.1699 41.3647 12.8806 39.9696 11.7914L39.9728 11.789L25.942 0.897436C25.9293 0.887825 25.919 0.877406 25.9055 0.868596C24.986 0.154238 23.4323 0.156645 22.4256 0.872605C21.403 1.59657 21.2841 2.79464 22.1957 3.54744L22.1917 3.55145L28.0498 8.36456L10.214 8.38377H10.1902C8.71582 8.38538 7.29689 9.36083 7.01945 10.6021C6.7309 11.8595 7.73287 12.9086 9.27071 12.9086L9.26834 12.9142L18.3051 12.8966L2.13404 25.3898C2.11343 25.4051 2.09124 25.4211 2.07221 25.4363C0.550228 26.6135 0.058753 28.5756 1.01792 29.8089C1.99294 31.0663 4.06188 31.0743 5.59972 29.8161L14.3987 22.5284C14.3987 22.5284 14.2703 23.5134 14.2806 24.0981L14.3075 24.1325ZM36.9787 27.424C35.1635 29.29 32.6189 30.3551 29.8761 30.3551C27.1255 30.3599 24.5809 29.314 22.7656 27.448C21.8778 26.5351 21.2278 25.4939 20.8235 24.3808C20.4295 23.2836 20.2766 22.1224 20.378 20.9531C20.4739 19.8079 20.8116 18.7107 21.353 17.7257C21.8826 16.7567 22.6134 15.8757 23.5092 15.131C25.2769 13.6814 27.5202 12.8886 29.8666 12.8886C32.221 12.8854 34.4643 13.6646 36.232 15.1149C37.1278 15.8549 37.857 16.7326 38.3881 17.7017C38.9296 18.6867 39.2681 19.7759 39.3632 20.9291C39.4631 22.0983 39.3101 23.2596 38.9161 24.3567C38.5134 25.4779 37.8618 26.519 36.974 27.432L36.9787 27.424Z" fill="#EA7600"/>
</g>
<defs>
<clipPath id="clip0_333_934">
<rect width="46" height="38" fill="white"/>
</clipPath>
</defs>
</svg>
