<svg width="48" height="24" viewBox="0 0 48 24" fill="none" xmlns="http://www.w3.org/2000/svg">
<path d="M12.8768 23.448C10.5301 23.448 8.41808 22.9573 6.54075 21.976C4.68475 20.9733 3.22342 19.5867 2.15675 17.816C1.09008 16.0453 0.55675 14.04 0.55675 11.8C0.55675 9.56 1.09008 7.55467 2.15675 5.784C3.22342 4.01333 4.68475 2.63733 6.54075 1.656C8.41808 0.653332 10.5301 0.151999 12.8768 0.151999C14.9248 0.151999 16.7701 0.514666 18.4128 1.24C20.0554 1.96533 21.4208 3.01067 22.5088 4.376L18.4768 8.024C17.0261 6.27467 15.2661 5.4 13.1968 5.4C11.9808 5.4 10.8928 5.66667 9.93275 6.2C8.99408 6.73333 8.25808 7.49067 7.72475 8.472C7.21275 9.432 6.95675 10.5413 6.95675 11.8C6.95675 13.0587 7.21275 14.1787 7.72475 15.16C8.25808 16.12 8.99408 16.8667 9.93275 17.4C10.8928 17.9333 11.9808 18.2 13.1968 18.2C15.2661 18.2 17.0261 17.3253 18.4768 15.576L22.5088 19.224C21.4208 20.5893 20.0554 21.6347 18.4128 22.36C16.7701 23.0853 14.9248 23.448 12.8768 23.448ZM47.9913 0.599998L38.3913 23H32.1513L22.5832 0.599998H29.4313L35.5113 15.192L41.7193 0.599998H47.9913Z" fill="currentColor"/>
</svg>
