<svg width="45" height="33" viewBox="0 0 45 33" fill="none" xmlns="http://www.w3.org/2000/svg">
<g clip-path="url(#clip0_333_920)">
<path d="M44.2677 13.5588C43.1645 12.8688 40.2655 12.5742 38.1579 13.1016C38.0442 11.1511 36.9619 9.50747 34.9816 8.07336L34.2485 7.61615L33.76 8.30169C32.7996 9.65619 32.395 11.4607 32.5384 13.101C32.6514 14.1117 33.0299 15.2478 33.76 16.0721C31.0169 17.5504 28.4886 17.2148 17.2913 17.2148H0.0031488C-0.047429 19.5639 0.358979 24.083 3.45196 27.7617C3.79351 28.168 4.16838 28.5611 4.57479 28.9398C7.0894 31.2795 10.8887 32.995 16.5701 33C25.2373 33.0072 32.6633 28.6545 37.1802 18.1298C38.6666 18.1525 42.5903 18.3775 44.5105 14.9299C44.5575 14.8718 44.999 14.0155 44.999 14.0155L44.2671 13.5582L44.2677 13.5588ZM11.2856 11.4104H6.42415V15.9272H11.2856V11.4104ZM17.5662 11.4104H12.7047V15.9272H17.5662V11.4104ZM23.8467 11.4104H18.9853V15.9272H23.8467V11.4104ZM30.1273 11.4104H25.2659V15.9272H30.1273V11.4104ZM5.005 11.4104H0.143577V15.9272H5.005V11.4104ZM11.2856 5.70548H6.42415V10.2223H11.2856V5.70548ZM17.5662 5.70548H12.7047V10.2223H17.5662V5.70548ZM23.8467 5.70548H18.9853V10.2223H23.8467V5.70548ZM23.8467 0H18.9853V4.51684H23.8467V0Z" fill="#1D63ED"/>
</g>
<defs>
<clipPath id="clip0_333_920">
<rect width="45" height="33" fill="white"/>
</clipPath>
</defs>
</svg>
