<svg width="25" height="38" viewBox="0 0 25 38" fill="none" xmlns="http://www.w3.org/2000/svg">
<g clip-path="url(#clip0_333_880)">
<path d="M6.25119 38C9.7005 38 12.4999 35.1627 12.4999 31.6667V25.3334H6.25119C2.80188 25.3334 0.00244141 28.1707 0.00244141 31.6667C0.00244141 35.1627 2.80188 38 6.25119 38Z" fill="#0ACF83"/>
<path d="M0.00244141 19C0.00244141 15.504 2.80188 12.6666 6.25119 12.6666H12.4999V25.3333H6.25119C2.80188 25.3333 0.00244141 22.496 0.00244141 19Z" fill="#A259FF"/>
<path d="M0.00268555 6.33333C0.00268555 2.83733 2.80213 0 6.25144 0H12.5002V12.6667H6.25144C2.80213 12.6667 0.00268555 9.82933 0.00268555 6.33333Z" fill="#F24E1E"/>
<path d="M12.5 0H18.7488C22.1981 0 24.9975 2.83733 24.9975 6.33333C24.9975 9.82933 22.1981 12.6667 18.7488 12.6667H12.5V0Z" fill="#FF7262"/>
<path d="M24.9975 19C24.9975 22.496 22.1981 25.3333 18.7488 25.3333C15.2994 25.3333 12.5 22.496 12.5 19C12.5 15.504 15.2994 12.6666 18.7488 12.6666C22.1981 12.6666 24.9975 15.504 24.9975 19Z" fill="#1ABCFE"/>
</g>
<defs>
<clipPath id="clip0_333_880">
<rect width="25" height="38" fill="white"/>
</clipPath>
</defs>
</svg>
