<svg width="39" height="34" viewBox="0 0 39 34" fill="none" xmlns="http://www.w3.org/2000/svg">
<path fill-rule="evenodd" clip-rule="evenodd" d="M19.4419 0C8.69103 0 0 7.79167 0 17.431C0 25.1363 5.56864 31.6586 13.2938 33.9671C14.2597 34.1406 14.6135 33.592 14.6135 33.1305C14.6135 32.7264 14.5816 31.3413 14.5816 29.898C9.17336 30.9372 8.04713 27.8201 8.04713 27.8201C7.17799 25.8 5.89019 25.2808 5.89019 25.2808C4.12007 24.213 6.01913 24.213 6.01913 24.213C7.98266 24.3284 9.01298 26.0022 9.01298 26.0022C10.7509 28.657 13.5513 27.9069 14.6779 27.4451C14.8387 26.3195 15.3541 25.5404 15.9013 25.1076C11.5878 24.7035 7.04945 23.2029 7.04945 16.5074C7.04945 14.6026 7.82149 13.0443 9.04482 11.8324C8.85181 11.3996 8.17567 9.60996 9.23822 7.21473C9.23822 7.21473 10.8798 6.7529 14.5812 9.00398C16.1659 8.62242 17.8002 8.42832 19.4419 8.42669C21.0835 8.42669 22.7569 8.62892 24.3022 9.00398C28.004 6.7529 29.6456 7.21473 29.6456 7.21473C30.7081 9.60996 30.0316 11.3996 29.8386 11.8324C31.0941 13.0443 31.8344 14.6026 31.8344 16.5074C31.8344 23.2029 27.296 24.6744 22.9503 25.1076C23.6587 25.6558 24.2699 26.6946 24.2699 28.3397C24.2699 30.6772 24.2381 32.5532 24.2381 33.1302C24.2381 33.592 24.5923 34.1406 25.5577 33.9674C33.2829 31.6583 38.8516 25.1363 38.8516 17.431C38.8834 7.79167 30.1605 0 19.4419 0Z" fill="currentColor"/>
</svg>
