<svg width="37" height="33" viewBox="0 0 37 33" fill="none" xmlns="http://www.w3.org/2000/svg">
<g clip-path="url(#clip0_333_925)">
<path d="M36.5774 13.0735L36.5248 12.9508L31.4344 0.819921C31.3309 0.582162 31.1475 0.380471 30.9106 0.243786C30.6735 0.109423 30.3971 0.0447093 30.1185 0.0583829C29.8399 0.0720564 29.5726 0.163459 29.3527 0.320249C29.1352 0.48154 28.9775 0.700095 28.9009 0.946173L25.4638 10.5484H11.5459L8.10884 0.946173C8.0343 0.698755 7.8762 0.479104 7.65705 0.31847C7.43715 0.16168 7.16986 0.0702778 6.89127 0.0566043C6.61267 0.0429307 6.33619 0.107644 6.09915 0.242008C5.8628 0.379245 5.67957 0.58076 5.57531 0.818142L0.475156 12.9437L0.424524 13.0664C-0.308266 14.8147 -0.398717 16.7332 0.166808 18.5325C0.732334 20.3319 1.92318 21.9146 3.55979 23.042L3.57731 23.0545L3.62405 23.0847L11.3785 28.3873L15.2148 31.0386L17.5516 32.6496C17.825 32.8391 18.1587 32.9417 18.5019 32.9417C18.8451 32.9417 19.1789 32.8391 19.4523 32.6496L21.7891 31.0386L25.6254 28.3873L33.4266 23.0527L33.446 23.0385C35.079 21.9108 36.2671 20.3298 36.8317 18.5328C37.3964 16.7359 37.3071 14.8201 36.5774 13.0735Z" fill="#E24329"/>
<path d="M36.5774 13.0735L36.5248 12.9508C34.0445 13.4157 31.7071 14.3751 29.6798 15.7604L18.5 23.4795C22.3071 26.1095 25.6215 28.3944 25.6215 28.3944L33.4227 23.0598L33.4422 23.0456C35.0774 21.918 36.2673 20.3359 36.8328 18.5375C37.3982 16.739 37.3086 14.8215 36.5774 13.0735Z" fill="#FC6D26"/>
<path d="M11.3784 28.3944L15.2147 31.0457L17.5516 32.6568C17.8249 32.8463 18.1587 32.9489 18.5019 32.9489C18.8451 32.9489 19.1789 32.8463 19.4522 32.6568L21.7891 31.0457L25.6254 28.3944C25.6254 28.3944 22.3071 26.1023 18.4999 23.4795C14.6928 26.1023 11.3784 28.3944 11.3784 28.3944Z" fill="#FCA326"/>
<path d="M7.31821 15.7603C5.29254 14.3721 2.95572 13.4103 0.475156 12.9436L0.424524 13.0663C-0.308266 14.8146 -0.398717 16.7331 0.166808 18.5325C0.732334 20.3319 1.92318 21.9146 3.55979 23.042L3.57731 23.0544L3.62405 23.0847L11.3785 28.3872C11.3785 28.3872 14.689 26.1023 18.5 23.4723L7.31821 15.7603Z" fill="#FC6D26"/>
</g>
<defs>
<clipPath id="clip0_333_925">
<rect width="37" height="33" fill="white"/>
</clipPath>
</defs>
</svg>
