<svg width="36" height="36" viewBox="0 0 36 36" fill="currentColor" xmlns="http://www.w3.org/2000/svg">
<g clip-path="url(#clip0_352_15)">
<path d="M18.0006 -0.327148C13.0234 -0.327148 12.3987 -0.305384 10.4439 -0.216421C8.49286 -0.127075 7.16112 0.181815 5.99584 0.635034C4.79048 1.10314 3.768 1.72932 2.74934 2.7484C1.72992 3.76709 1.10376 4.7896 0.634134 5.99461C0.179784 7.16031 -0.129479 8.49247 -0.217295 10.4428C-0.304728 12.3977 -0.327637 13.0227 -0.327637 18.0001C-0.327637 22.9775 -0.305492 23.6003 -0.216912 25.5552C-0.127188 27.5063 0.181693 28.838 0.634516 30.0033C1.10299 31.2087 1.72916 32.2313 2.7482 33.2499C3.76648 34.2694 4.78895 34.8971 5.99355 35.3652C7.15959 35.8184 8.49171 36.1273 10.4424 36.2167C12.3972 36.3056 13.0215 36.3274 17.9983 36.3274C22.9759 36.3274 23.5987 36.3056 25.5535 36.2167C27.5045 36.1273 28.8378 35.8184 30.0038 35.3652C31.2088 34.8971 32.2298 34.2694 33.2481 33.2499C34.2675 32.2313 34.8936 31.2087 35.3633 30.0037C35.8138 28.838 36.1231 27.5059 36.2147 25.5555C36.3025 23.6006 36.3254 22.9775 36.3254 18.0001C36.3254 13.0227 36.3025 12.3981 36.2147 10.4432C36.1231 8.49209 35.8138 7.16031 35.3633 5.995C34.8936 4.7896 34.2675 3.76709 33.2481 2.7484C32.2286 1.72894 31.2092 1.10276 30.0027 0.635034C28.8344 0.181815 27.5019 -0.127075 25.5508 -0.216421C23.596 -0.305384 22.9736 -0.327148 17.9949 -0.327148H18.0006ZM16.3566 2.97558C16.8445 2.97481 17.389 2.97558 18.0006 2.97558C22.8938 2.97558 23.4738 2.99314 25.4061 3.08096C27.193 3.16267 28.1628 3.46125 28.8088 3.71211C29.664 4.04429 30.2738 4.44138 30.9148 5.08283C31.5563 5.72429 31.9533 6.3352 32.2863 7.19047C32.5371 7.83574 32.8361 8.80556 32.9174 10.5925C33.0052 12.5245 33.0243 13.1048 33.0243 17.9959C33.0243 22.887 33.0052 23.4674 32.9174 25.3994C32.8357 27.1863 32.5371 28.1561 32.2863 28.8014C31.9541 29.6567 31.5563 30.2657 30.9148 30.9067C30.2734 31.5482 29.6644 31.9453 28.8088 32.2775C28.1635 32.5294 27.193 32.8273 25.4061 32.909C23.4742 32.9968 22.8938 33.0159 18.0006 33.0159C13.107 33.0159 12.527 32.9968 10.5951 32.909C8.80823 32.8265 7.83844 32.5279 7.19204 32.2771C6.3368 31.9449 5.72591 31.5478 5.08447 30.9063C4.44304 30.2649 4.04596 29.6555 3.71302 28.7999C3.46218 28.1546 3.16322 27.1848 3.0819 25.3979C2.99408 23.4659 2.97652 22.8855 2.97652 17.9913C2.97652 13.0972 2.99408 12.5199 3.0819 10.5879C3.1636 8.80098 3.46218 7.83116 3.71302 7.18512C4.04519 6.32985 4.44304 5.71894 5.08447 5.07749C5.72591 4.43603 6.3368 4.03894 7.19204 3.706C7.83806 3.454 8.80823 3.15618 10.5951 3.07409C12.2857 2.99772 12.9409 2.97482 16.3566 2.971V2.97558ZM27.7833 6.01867C26.5691 6.01867 25.584 7.00261 25.584 8.21718C25.584 9.43136 26.5691 10.4165 27.7833 10.4165C28.9974 10.4165 29.9825 9.43136 29.9825 8.21718C29.9825 7.003 28.9974 6.01791 27.7833 6.01791V6.01867ZM18.0006 8.58831C12.8031 8.58831 8.58908 12.8024 8.58908 18.0001C8.58908 23.1978 12.8031 27.41 18.0006 27.41C23.1981 27.41 27.4106 23.1978 27.4106 18.0001C27.4106 12.8024 23.1981 8.58831 18.0006 8.58831ZM18.0006 11.891C21.3743 11.891 24.1095 14.626 24.1095 18.0001C24.1095 21.3739 21.3743 24.1092 18.0006 24.1092C14.6266 24.1092 11.8917 21.3739 11.8917 18.0001C11.8917 14.626 14.6266 11.891 18.0006 11.891Z" fill="currentColor"/>
</g>
<defs>
<clipPath id="clip0_352_15">
<rect width="36" height="36" fill="currentColor"/>
</clipPath>
</defs>
</svg>
