<svg width="26" height="26" viewBox="0 0 26 26" fill="none" xmlns="http://www.w3.org/2000/svg">
<g clip-path="url(#clip0_337_192)">
<path d="M13.0063 0.196777C7.66026 0.196777 6.09676 0.202292 5.79285 0.227505C4.69576 0.318702 4.01308 0.491444 3.26935 0.861747C2.69619 1.14637 2.24415 1.47629 1.79803 1.93878C0.985555 2.7822 0.493146 3.81984 0.314893 5.05326C0.228229 5.65205 0.203018 5.77417 0.197897 8.83272C0.195927 9.85223 0.197897 11.194 0.197897 12.9937C0.197897 18.3355 0.203806 19.8975 0.229411 20.2008C0.318045 21.2684 0.485464 21.9401 0.839999 22.6748C1.51755 24.0811 2.81161 25.1369 4.3361 25.5308C4.86397 25.6667 5.44698 25.7416 6.19544 25.777C6.51255 25.7908 9.74473 25.8007 12.9789 25.8007C16.213 25.8007 19.4472 25.7967 19.7564 25.781C20.623 25.7402 21.1263 25.6726 21.6827 25.5289C23.217 25.1329 24.4875 24.0929 25.1788 22.6669C25.5264 21.9499 25.7027 21.2526 25.7825 20.2408C25.7998 20.0202 25.8071 16.5029 25.8071 12.9904C25.8071 9.4772 25.7992 5.96641 25.7819 5.74581C25.7012 4.71763 25.5249 4.02626 25.166 3.2955C24.8715 2.69731 24.5446 2.25058 24.0699 1.79381C23.2228 0.984656 22.1867 0.492232 20.9522 0.314171C20.354 0.227702 20.2348 0.202096 17.174 0.196777H13.0063Z" fill="url(#paint0_radial_337_192)"/>
<path d="M13.0063 0.196777C7.66026 0.196777 6.09676 0.202292 5.79285 0.227505C4.69576 0.318702 4.01308 0.491444 3.26935 0.861747C2.69619 1.14637 2.24415 1.47629 1.79803 1.93878C0.985555 2.7822 0.493146 3.81984 0.314893 5.05326C0.228229 5.65205 0.203018 5.77417 0.197897 8.83272C0.195927 9.85223 0.197897 11.194 0.197897 12.9937C0.197897 18.3355 0.203806 19.8975 0.229411 20.2008C0.318045 21.2684 0.485464 21.9401 0.839999 22.6748C1.51755 24.0811 2.81161 25.1369 4.3361 25.5308C4.86397 25.6667 5.44698 25.7416 6.19544 25.777C6.51255 25.7908 9.74473 25.8007 12.9789 25.8007C16.213 25.8007 19.4472 25.7967 19.7564 25.781C20.623 25.7402 21.1263 25.6726 21.6827 25.5289C23.217 25.1329 24.4875 24.0929 25.1788 22.6669C25.5264 21.9499 25.7027 21.2526 25.7825 20.2408C25.7998 20.0202 25.8071 16.5029 25.8071 12.9904C25.8071 9.4772 25.7992 5.96641 25.7819 5.74581C25.7012 4.71763 25.5249 4.02626 25.166 3.2955C24.8715 2.69731 24.5446 2.25058 24.0699 1.79381C23.2228 0.984656 22.1867 0.492232 20.9522 0.314171C20.354 0.227702 20.2348 0.202096 17.174 0.196777H13.0063Z" fill="url(#paint1_radial_337_192)"/>
<path d="M13.0005 3.54541C10.4328 3.54541 10.1106 3.55664 9.10215 3.60253C8.09567 3.64862 7.40866 3.80797 6.80752 4.04177C6.18571 4.28326 5.65824 4.60629 5.13274 5.132C4.60685 5.65752 4.28383 6.185 4.04156 6.80664C3.80717 7.40799 3.64763 8.09521 3.60233 9.10133C3.55723 10.1098 3.54541 10.4323 3.54541 13C3.54541 15.5677 3.55683 15.8889 3.60253 16.8974C3.64882 17.9039 3.80816 18.5909 4.04176 19.1921C4.28343 19.8139 4.60645 20.3414 5.13215 20.8669C5.65745 21.3928 6.18492 21.7167 6.80634 21.9581C7.40787 22.1919 8.09508 22.3513 9.10136 22.3974C10.1098 22.4433 10.4319 22.4545 12.9993 22.4545C15.5671 22.4545 15.8883 22.4433 16.8968 22.3974C17.9033 22.3513 18.5911 22.1919 19.1926 21.9581C19.8142 21.7167 20.3409 21.3928 20.8662 20.8669C21.3921 20.3414 21.7151 19.8139 21.9574 19.1923C22.1898 18.5909 22.3493 17.9037 22.3966 16.8976C22.4419 15.8891 22.4537 15.5677 22.4537 13C22.4537 10.4323 22.4419 10.11 22.3966 9.10153C22.3493 8.09502 22.1898 7.40799 21.9574 6.80683C21.7151 6.185 21.3921 5.65752 20.8662 5.132C20.3403 4.60609 19.8144 4.28306 19.192 4.04177C18.5893 3.80797 17.9019 3.64862 16.8954 3.60253C15.887 3.55664 15.5659 3.54541 12.9975 3.54541H13.0005ZM12.1523 5.2492C12.4041 5.2488 12.6849 5.2492 13.0005 5.2492C15.5247 5.2492 15.8239 5.25826 16.8208 5.30356C17.7426 5.34571 18.2428 5.49974 18.5761 5.62915C19.0173 5.80052 19.3319 6.00536 19.6626 6.33627C19.9935 6.66718 20.1983 6.98233 20.3701 7.42355C20.4995 7.75643 20.6537 8.25673 20.6956 9.17855C20.7409 10.1752 20.7508 10.4746 20.7508 12.9978C20.7508 15.521 20.7409 15.8204 20.6956 16.817C20.6535 17.7388 20.4995 18.2392 20.3701 18.572C20.1987 19.0132 19.9935 19.3274 19.6626 19.6581C19.3317 19.989 19.0175 20.1939 18.5761 20.3652C18.2432 20.4952 17.7426 20.6489 16.8208 20.691C15.8241 20.7363 15.5247 20.7462 13.0005 20.7462C10.476 20.7462 10.1768 20.7363 9.18015 20.691C8.25836 20.6485 7.75807 20.4945 7.42461 20.365C6.98341 20.1937 6.66827 19.9888 6.33737 19.6579C6.00647 19.327 5.80163 19.0127 5.62988 18.5712C5.50047 18.2384 5.34625 17.7381 5.3043 16.8162C5.25899 15.8196 5.24993 15.5202 5.24993 12.9954C5.24993 10.4707 5.25899 10.1729 5.3043 9.17618C5.34645 8.25437 5.50047 7.75406 5.62988 7.42079C5.80124 6.97958 6.00647 6.66443 6.33737 6.33352C6.66827 6.00261 6.98341 5.79776 7.42461 5.626C7.75787 5.496 8.25836 5.34236 9.18015 5.30002C10.0523 5.26062 10.3903 5.2488 12.1523 5.24683V5.2492ZM18.0471 6.81905C17.4207 6.81905 16.9125 7.32664 16.9125 7.9532C16.9125 8.57956 17.4207 9.08774 18.0471 9.08774C18.6734 9.08774 19.1816 8.57956 19.1816 7.9532C19.1816 7.32683 18.6734 6.81865 18.0471 6.81865V6.81905ZM13.0005 8.14465C10.3192 8.14465 8.1453 10.3186 8.1453 13C8.1453 15.6813 10.3192 17.8543 13.0005 17.8543C15.6817 17.8543 17.8548 15.6813 17.8548 13C17.8548 10.3186 15.6817 8.14465 13.0005 8.14465ZM13.0005 9.84844C14.7408 9.84844 16.1519 11.2593 16.1519 13C16.1519 14.7404 14.7408 16.1515 13.0005 16.1515C11.2599 16.1515 9.84904 14.7404 9.84904 13C9.84904 11.2593 11.2599 9.84844 13.0005 9.84844Z" fill="white"/>
</g>
<defs>
<radialGradient id="paint0_radial_337_192" cx="0" cy="0" r="1" gradientUnits="userSpaceOnUse" gradientTransform="translate(6.99974 27.7727) rotate(-90) scale(25.3754 23.6068)">
<stop stop-color="#FFDD55"/>
<stop offset="0.1" stop-color="#FFDD55"/>
<stop offset="0.5" stop-color="#FF543E"/>
<stop offset="1" stop-color="#C837AB"/>
</radialGradient>
<radialGradient id="paint1_radial_337_192" cx="0" cy="0" r="1" gradientUnits="userSpaceOnUse" gradientTransform="translate(-4.09281 2.04124) rotate(78.678) scale(11.343 46.7668)">
<stop stop-color="#3771C8"/>
<stop offset="0.128" stop-color="#3771C8"/>
<stop offset="1" stop-color="#6600FF" stop-opacity="0"/>
</radialGradient>
<clipPath id="clip0_337_192">
<rect width="26" height="26" fill="white"/>
</clipPath>
</defs>
</svg>
