<svg width="78" height="78" viewBox="0 0 78 78" fill="none" xmlns="http://www.w3.org/2000/svg">
<rect width="78" height="78" rx="25" fill="white"/>
<mask id="mask0_574_41" style="mask-type:luminance" maskUnits="userSpaceOnUse" x="12" y="12" width="54" height="54">
<path fill-rule="evenodd" clip-rule="evenodd" d="M12 12H66V66H12V12Z" fill="white"/>
</mask>
<g mask="url(#mask0_574_41)">
<path fill-rule="evenodd" clip-rule="evenodd" d="M51.9845 54.8917C50.8964 55.8203 49.6002 56.6114 48.4674 55.9057C47.3533 55.2111 46.8594 53.7106 46.3394 52.5781C44.8799 49.384 43.6246 46.0787 42.1651 42.8848C40.7241 39.7465 39.2346 36.2963 36.609 33.9901C35.7028 33.199 34.4809 32.3968 33.0808 33.5887C31.5136 34.9334 30.7412 36.872 30.0799 38.5953C28.6651 42.3017 27.9742 46.0637 26.9194 49.7964C25.2221 47.9505 23.5214 46.101 21.8204 44.2552C22.5741 40.8903 23.9075 37.4849 25.5714 34.235C27.3021 30.859 29.4597 27.3162 32.5386 24.6829C35.257 22.3579 38.6183 20.9839 41.4445 22.3953C44.1705 23.7583 45.8902 26.4804 47.3423 28.9725C50.5918 34.547 53.0466 40.5783 55.8434 46.4204C57.1172 49.087 54.4914 52.749 51.9845 54.8917ZM65.7401 24.0923C65.4134 19.9699 64.6407 17.051 62.7838 15.2162C60.9491 13.3593 58.0301 12.5869 53.9077 12.2599C49.8297 11.9332 44.5449 12.0484 39 12C33.4515 12.0484 28.1703 11.9332 24.0926 12.2599C19.9702 12.5869 17.051 13.3593 15.2162 15.2162C13.3593 17.051 12.5869 19.9699 12.2599 24.0923C11.9332 28.1703 12.0484 33.4552 12 39C12.052 44.5448 11.9332 49.8297 12.2599 53.9075C12.5869 58.0299 13.3593 60.9491 15.2162 62.7839C17.051 64.6407 19.9702 65.4131 24.0926 65.7401C28.1703 66.0668 33.4552 65.9517 39 66C44.5449 65.948 49.8297 66.0668 53.9077 65.7401C58.0301 65.4131 60.9491 64.6407 62.7838 62.7839C64.6407 60.9491 65.4131 58.0299 65.7401 53.9075C66.067 49.8297 65.9517 44.5448 66.0001 39C65.948 33.4552 66.067 28.1703 65.7401 24.0923Z" fill="black"/>
</g>
</svg>
