<svg width="36" height="36" viewBox="0 0 36 36" fill="none" xmlns="http://www.w3.org/2000/svg">
<path d="M8.05982 36H0.594643V11.9652H8.05982V36ZM4.32321 8.68661C1.93661 8.68661 0 6.70982 0 4.32321C0 3.17663 0.45548 2.077 1.26624 1.26624C2.077 0.45548 3.17663 0 4.32321 0C5.4698 0 6.56943 0.45548 7.38019 1.26624C8.19095 2.077 8.64643 3.17663 8.64643 4.32321C8.64643 6.70982 6.70982 8.68661 4.32321 8.68661ZM35.992 36H28.5429V24.3C28.5429 21.5116 28.4866 17.9357 24.6616 17.9357C20.7804 17.9357 20.1857 20.9652 20.1857 24.0991V36H12.7286V11.9652H19.8884V15.2437H19.9929C20.9893 13.3554 23.4241 11.3625 27.0563 11.3625C34.6098 11.3625 36 16.3366 36 22.7973V36H35.992Z" fill="currentColor"/>
</svg>
