<svg width="44" height="40" viewBox="0 0 44 40" fill="none" xmlns="http://www.w3.org/2000/svg">
<g clip-path="url(#clip0_333_847)">
<path d="M21.8389 0.108765L23.0028 2.11376C23.2644 2.48376 23.5479 2.81126 23.8818 3.11626C24.8563 4.01001 25.7817 4.94626 26.613 5.94876C28.5851 8.32376 29.9152 10.9613 30.8651 13.8138C31.4348 15.5563 31.7442 17.3438 31.7674 19.1513C31.8628 24.555 29.843 29.195 25.7708 33.0513C25.1057 33.6613 24.3943 34.2263 23.6311 34.7288C23.2276 34.7288 23.0368 34.445 22.8706 34.1838C22.5612 33.705 22.3718 33.1588 22.2764 32.615C22.1333 31.9613 22.0392 31.3075 22.0856 30.6325V30.3275C22.0529 30.2625 21.6971 0.262515 21.8389 0.108765Z" fill="#599636"/>
<path d="M21.8387 0.0425155C21.791 -0.0449845 21.7433 0.0212655 21.6956 0.0637655C21.7187 0.501265 21.5525 0.891266 21.2922 1.26377C21.006 1.63377 20.6271 1.91752 20.2468 2.22252C18.1344 3.90002 16.4717 5.92627 15.1402 8.19252C13.3685 11.2425 12.4553 14.5113 12.1964 17.9525C12.0778 19.1938 12.6243 23.5738 13.0509 24.8375C14.2148 28.1925 16.3054 31.0038 19.0135 33.4438C19.6785 34.0313 20.3899 34.5763 21.1259 35.1C21.3399 35.1 21.363 34.925 21.4121 34.795C21.5059 34.5168 21.5774 34.2327 21.6261 33.945L22.1031 30.6775L21.8387 0.0425155Z" fill="#6CAC48"/>
<path d="M23.0026 36.0563C23.0503 35.5563 23.312 35.1413 23.5969 34.7275C23.3107 34.6188 23.098 34.4025 22.9318 34.1613C22.7887 33.9438 22.6701 33.6825 22.5774 33.4425C22.2449 32.5275 22.174 31.5675 22.0786 30.6325V30.0663C21.9601 30.1538 21.9355 30.8938 21.9355 31.0038C21.8662 31.992 21.7232 32.9747 21.5076 33.945C21.4367 34.3375 21.389 34.7288 21.126 35.0775C21.126 35.1213 21.126 35.165 21.1491 35.23C21.5771 36.385 21.6943 37.5613 21.7665 38.76V39.1975C21.7665 39.72 21.7434 39.61 22.2163 39.785C22.4071 39.85 22.6197 39.8725 22.8105 40.0025C22.9536 40.0025 22.9768 39.8938 22.9768 39.8063L22.9059 39.0875V37.0825C22.8827 36.7325 22.9536 36.385 23.0013 36.0575L23.0026 36.0563Z" fill="#C2BFBF"/>
</g>
<defs>
<clipPath id="clip0_333_847">
<rect width="43.6117" height="40" fill="white" transform="translate(0.169189)"/>
</clipPath>
</defs>
</svg>
