<svg width="42" height="39" viewBox="0 0 42 39" fill="none" xmlns="http://www.w3.org/2000/svg">
<path fill-rule="evenodd" clip-rule="evenodd" d="M24.7762 0.646973C24.478 0.646973 24.2011 0.706136 23.9454 0.785017C24.4886 1.12027 24.7869 1.56398 24.936 2.06685C24.9467 2.13587 24.968 2.18518 24.9786 2.2542C24.9893 2.31336 24.9999 2.37252 24.9999 2.43168C25.0425 3.29939 24.7549 3.40785 24.5525 3.92058C24.2437 4.58123 24.3289 5.29116 24.7017 5.86306C24.7336 5.93208 24.7762 6.01096 24.8295 6.07999C24.4247 3.58534 26.6722 3.21064 27.0876 2.43168C27.1195 1.75132 26.5124 1.29775 26.0331 0.982222C25.5751 0.725855 25.1597 0.646973 24.7762 0.646973ZM28.1634 1.20901C28.1207 1.43579 28.1527 1.37663 28.1421 1.49496C28.1314 1.57384 28.1314 1.67244 28.1208 1.75132C28.0995 1.83021 28.0782 1.90909 28.0462 1.98797C28.0249 2.06685 27.993 2.14574 27.961 2.22462C27.9184 2.3035 27.8865 2.37252 27.8439 2.4514C27.8119 2.49086 27.7906 2.53028 27.7586 2.56973C27.7374 2.59931 27.716 2.62889 27.6947 2.65847C27.6415 2.72749 27.5882 2.79651 27.535 2.85567C27.4711 2.91484 27.4178 2.98386 27.3432 3.03316V3.04304C27.2793 3.09234 27.2154 3.1515 27.1409 3.2008C26.9172 3.35856 26.6616 3.47689 26.4272 3.62479C26.3527 3.67409 26.2781 3.71353 26.2142 3.7727C26.1396 3.822 26.0757 3.8713 26.0118 3.93046C25.9373 3.98962 25.884 4.04878 25.8201 4.11781C25.7668 4.17697 25.7029 4.24599 25.6603 4.31501C25.6071 4.38403 25.5538 4.45305 25.5112 4.52208C25.4686 4.60096 25.4366 4.66998 25.394 4.74886C25.3621 4.82774 25.3301 4.89677 25.3088 4.97565C25.2769 5.06439 25.2556 5.14327 25.2343 5.22216C25.2236 5.26161 25.2236 5.3109 25.213 5.35034C25.2023 5.3898 25.2023 5.42922 25.1917 5.46866C25.1917 5.54754 25.181 5.63629 25.181 5.71517C25.181 5.77433 25.181 5.83349 25.1917 5.89266C25.1917 5.97154 25.2024 6.05042 25.2236 6.13916C25.2343 6.21804 25.2556 6.29692 25.2769 6.37581C25.3089 6.45469 25.3302 6.53357 25.3621 6.61245C25.3834 6.66176 25.4154 6.71106 25.4367 6.7505L22.9869 5.87293C22.5715 5.76447 22.1667 5.66587 21.7513 5.57713C21.5276 5.52783 21.304 5.47852 21.0803 5.42922C20.4412 5.3109 19.7915 5.22216 19.1417 5.163C19.1204 5.163 19.1098 5.15312 19.0885 5.15312C18.4494 5.09396 17.821 5.06438 17.1819 5.06438C16.7132 5.06438 16.2446 5.08408 15.7865 5.11368C15.1368 5.15314 14.4871 5.23201 13.8373 5.33061C13.6776 5.35031 13.5178 5.37991 13.358 5.40949C13.0278 5.46865 12.7083 5.53767 12.3994 5.6067C12.2396 5.64615 12.0799 5.68558 11.9201 5.72502C11.7603 5.78418 11.6112 5.8532 11.4621 5.91236C11.3449 5.96166 11.2278 6.01096 11.1106 6.06027C11.0893 6.07014 11.068 6.07014 11.0573 6.07997C10.9508 6.12927 10.855 6.16871 10.7591 6.21802C10.7272 6.22789 10.7058 6.23772 10.6845 6.2476C10.5674 6.2969 10.4502 6.35606 10.3544 6.40536C10.2798 6.43494 10.2052 6.47438 10.1413 6.50397C10.1094 6.52367 10.0668 6.54342 10.0455 6.55327C9.9496 6.60257 9.85374 6.65187 9.76853 6.70117C9.67266 6.75047 9.58745 6.79977 9.51289 6.84907C9.43834 6.89838 9.36378 6.93782 9.29987 6.98711C9.2892 6.99699 9.27858 6.99699 9.26791 7.00682C9.204 7.04628 9.12945 7.09556 9.06554 7.14487C9.06554 7.14487 9.05487 7.15474 9.04425 7.16457C8.991 7.20403 8.93774 7.24345 8.88448 7.28289C8.86319 7.29277 8.84186 7.31247 8.82057 7.32235C8.76732 7.36181 8.71406 7.4111 8.6608 7.45054C8.65014 7.47024 8.62885 7.48012 8.61818 7.48999C8.55427 7.54916 8.49037 7.59845 8.42646 7.65762C8.41579 7.65762 8.41579 7.66749 8.40517 7.67732C8.34126 7.72662 8.27735 7.78579 8.21345 7.84495C8.20278 7.85482 8.20278 7.86465 8.19216 7.86465C8.1389 7.91395 8.08565 7.96326 8.03239 8.02242C8.0111 8.04212 7.97913 8.06187 7.95783 8.08158C7.90457 8.14074 7.84067 8.1999 7.77676 8.25906C7.76609 8.27877 7.7448 8.28864 7.73414 8.30836C7.64893 8.38725 7.57436 8.46613 7.48915 8.54501C7.47848 8.55489 7.46787 8.56472 7.4572 8.57459C7.28678 8.74222 7.1057 8.90984 6.91398 9.05775C6.72226 9.21551 6.51988 9.36341 6.3175 9.4916C6.10448 9.62964 5.9021 9.74796 5.67842 9.86629C5.46539 9.97475 5.24171 10.0734 5.00739 10.1621C4.78371 10.2508 4.54938 10.3297 4.31505 10.3987C3.86769 10.4875 3.40968 10.6551 3.01558 10.6847C2.93037 10.6847 2.83451 10.7044 2.7493 10.7143C2.65344 10.734 2.56823 10.7537 2.48302 10.7734C2.39781 10.803 2.31259 10.8326 2.22738 10.8622C2.14217 10.8918 2.05696 10.9312 1.97175 10.9706C1.89719 11.0199 1.81198 11.0594 1.73742 11.1087C1.66286 11.158 1.5883 11.2171 1.52439 11.2763C1.44983 11.3256 1.37527 11.3946 1.31136 11.4538C1.24746 11.5228 1.18355 11.582 1.13029 11.651C1.07704 11.7299 1.01313 11.7989 0.97052 11.8778C0.917264 11.9468 0.864009 12.0257 0.821402 12.1046C0.778779 12.1933 0.736192 12.2722 0.704237 12.3609C0.672283 12.4398 0.640329 12.5286 0.608374 12.6173C0.587088 12.6962 0.565752 12.7751 0.555119 12.8539C0.555119 12.8638 0.544451 12.8737 0.544451 12.8835C0.523165 12.9723 0.523165 13.0906 0.512497 13.1498C0.501829 13.2188 0.491211 13.2779 0.491211 13.347C0.491211 13.3864 0.491211 13.4357 0.501879 13.4752C0.512546 13.5442 0.523165 13.6033 0.544501 13.6625C0.565787 13.7217 0.587124 13.7808 0.619058 13.84V13.8499C0.651012 13.909 0.69362 13.9682 0.736222 14.0273C0.778844 14.0865 0.821437 14.1457 0.874692 14.2048C0.927948 14.2541 0.991856 14.3133 1.05576 14.3626C1.11967 14.4218 1.18358 14.4711 1.25814 14.5204C1.51377 14.7274 1.57768 14.7964 1.90787 14.9542C1.96113 14.9838 2.01439 15.0035 2.0783 15.0331C2.08897 15.0331 2.09958 15.043 2.11025 15.043C2.11025 15.0627 2.11025 15.0725 2.12092 15.0923C2.13159 15.1712 2.15288 15.25 2.17418 15.3289C2.19546 15.4177 2.22744 15.4965 2.25939 15.5656C2.29135 15.6247 2.31265 15.6839 2.3446 15.743C2.35527 15.7628 2.36589 15.7825 2.37656 15.7923C2.41918 15.8712 2.46177 15.9403 2.50437 16.0093C2.55763 16.0783 2.61088 16.1473 2.66414 16.2163C2.7174 16.2755 2.7813 16.3445 2.84521 16.4037C2.90912 16.4628 2.97303 16.5121 3.04759 16.5713C3.04759 16.5713 3.05826 16.5812 3.06888 16.5812C3.13279 16.6305 3.1967 16.6798 3.2606 16.7192C3.33516 16.7685 3.40972 16.808 3.49493 16.8474C3.56949 16.8869 3.6547 16.9263 3.73991 16.9559C3.80382 16.9855 3.87838 17.0052 3.95294 17.0249C3.96361 17.0348 3.97423 17.0348 3.99556 17.0446C4.03819 17.0545 4.09142 17.0643 4.13403 17.0742C4.10207 17.6067 4.09141 18.1095 4.17665 18.287C4.27251 18.4842 4.74117 17.8827 5.20983 17.1925C5.14592 17.8729 5.10332 18.6716 5.20983 18.9082C5.327 19.1547 5.96608 18.3856 6.51995 17.5376C14.0718 15.9205 20.9632 20.7521 21.6875 27.5754C21.549 26.5105 20.1324 25.9189 19.4827 26.0668C19.1631 26.7964 18.6199 27.7332 17.7465 28.3149C17.821 27.6641 17.7891 26.9936 17.64 26.3429C17.4056 27.25 16.9476 28.098 16.3192 28.8276C15.3073 28.8967 14.2954 28.4431 13.7629 27.7627C13.7202 27.7332 13.7096 27.674 13.6777 27.6346C13.6457 27.5655 13.6137 27.4965 13.5924 27.4275C13.5605 27.3585 13.5392 27.2894 13.5285 27.2204C13.5179 27.1514 13.5179 27.0824 13.5179 27.0035C13.5179 26.9542 13.5179 26.9049 13.5179 26.8556C13.5285 26.7866 13.5498 26.7175 13.5711 26.6485C13.5924 26.5795 13.6137 26.5105 13.6457 26.4415C13.6883 26.3724 13.7202 26.3034 13.7735 26.2344C13.9546 25.7611 13.9546 25.3765 13.6244 25.1498C13.5605 25.1103 13.4966 25.0807 13.422 25.0512C13.3794 25.0413 13.3261 25.0216 13.2835 25.0117C13.2516 25.0018 13.2303 24.992 13.1983 24.9821C13.1238 24.9624 13.0492 24.9427 12.9747 24.9328C12.9001 24.9131 12.8255 24.9032 12.751 24.9032C12.6764 24.8934 12.5912 24.8835 12.5166 24.8835C12.4634 24.8835 12.4101 24.8934 12.3569 24.8934C12.2717 24.8934 12.1971 24.9033 12.1225 24.923C12.048 24.9329 11.9734 24.9427 11.8989 24.9624C11.8243 24.9821 11.7497 25.0019 11.6752 25.0315C11.6006 25.061 11.5367 25.0906 11.4622 25.1202C11.3983 25.1498 11.3343 25.1892 11.2598 25.2188C8.77801 26.7176 10.2586 30.2278 11.9521 31.2434C11.313 31.3519 10.6633 31.4801 10.4822 31.6083C10.4716 31.6181 10.4609 31.628 10.4609 31.628C10.919 31.8843 11.3983 32.1013 11.8989 32.2886C12.5806 32.4957 13.3049 32.683 13.6244 32.7619V32.7718C14.5085 32.9394 15.4032 32.9986 16.3085 32.9493C21.0271 32.6436 24.8935 29.3207 25.5965 24.9427C25.6178 25.0315 25.6392 25.1103 25.6604 25.1991C25.6924 25.3766 25.735 25.5639 25.7563 25.7513V25.7611C25.7776 25.8499 25.7883 25.9386 25.7989 26.0175V26.057C25.8096 26.1457 25.8202 26.2345 25.8202 26.3133C25.8309 26.4218 25.8415 26.5303 25.8415 26.6387V26.7965C25.8415 26.8458 25.8522 26.905 25.8522 26.9543C25.8522 27.0134 25.8415 27.0726 25.8415 27.1317V27.2698C25.8415 27.3388 25.8308 27.398 25.8308 27.467C25.8308 27.5064 25.8308 27.5459 25.8202 27.5952C25.8202 27.6642 25.8095 27.7332 25.8095 27.8121C25.7988 27.8417 25.7988 27.8713 25.7988 27.9008C25.7881 27.9797 25.7775 28.0487 25.7668 28.1276C25.7668 28.1572 25.7668 28.1868 25.7562 28.2164C25.7455 28.315 25.7242 28.4037 25.7136 28.5023V28.5122V28.5221C25.6923 28.6108 25.6709 28.7094 25.6497 28.7982V28.8278C25.6284 28.9165 25.607 29.0052 25.5857 29.094C25.5857 29.1039 25.5751 29.1236 25.5751 29.1334C25.5538 29.2222 25.5325 29.3109 25.5005 29.3997V29.4292C25.4686 29.5278 25.4366 29.6166 25.4153 29.7053C25.4046 29.7152 25.4046 29.725 25.4046 29.725C25.3727 29.8236 25.3407 29.9222 25.3088 30.0208C25.2662 30.1194 25.2342 30.2082 25.1916 30.3068C25.149 30.4054 25.1171 30.504 25.0745 30.5927C25.0318 30.6913 24.9892 30.7801 24.9466 30.8787H24.936C24.8933 30.9674 24.8507 31.066 24.7975 31.1548C24.7868 31.1844 24.7762 31.2041 24.7655 31.2238C24.7549 31.2337 24.7549 31.2435 24.7442 31.2534C24.0519 32.5451 23.0294 33.679 21.7512 34.5664C21.666 34.6157 21.5808 34.6749 21.4956 34.7341C21.4743 34.7538 21.4423 34.7636 21.421 34.7834C21.3465 34.8327 21.2719 34.882 21.1867 34.9313L21.2187 34.9904H21.2293C21.3784 34.9707 21.5276 34.951 21.6767 34.9313H21.6873C21.9643 34.8918 22.2412 34.8425 22.5181 34.7932C22.5927 34.7833 22.6779 34.7636 22.7525 34.7439C22.8057 34.734 22.8483 34.7242 22.9016 34.7143C22.9762 34.7044 23.0507 34.6847 23.1253 34.6749C23.1892 34.6552 23.2531 34.6453 23.317 34.6256C24.3821 34.3889 25.4153 34.0635 26.4059 33.679C24.7123 35.8187 22.4436 37.5442 19.7914 38.6781C21.0163 38.5993 22.2412 38.4119 23.4235 38.0964C27.716 36.923 31.3268 34.2509 33.489 30.6519C33.0523 32.9296 32.0724 35.0989 30.6238 36.992C31.657 36.361 32.605 35.6313 33.4677 34.8031C35.8536 32.4958 37.4194 29.5673 37.952 26.4218C38.3141 27.9797 38.4206 29.587 38.2609 31.1745C45.9511 21.2452 38.8999 10.951 35.9495 8.23947C35.9388 8.21977 35.9282 8.20989 35.9282 8.19017C35.9175 8.20004 35.9175 8.20004 35.9175 8.20988C35.9175 8.2 35.9175 8.2 35.9069 8.19017C35.9069 8.3085 35.8962 8.42682 35.8856 8.54514C35.8536 8.77193 35.8217 8.98885 35.7791 9.20578C35.7258 9.42271 35.6619 9.63963 35.598 9.85656C35.5234 10.0636 35.4382 10.2805 35.3424 10.4876C35.2465 10.6848 35.14 10.8919 35.0228 11.0891C34.9057 11.2764 34.7778 11.4736 34.6394 11.6511C34.5009 11.8385 34.3518 12.016 34.2027 12.1836C34.0429 12.3611 33.8725 12.5188 33.7021 12.6766C33.5955 12.7653 33.4997 12.8442 33.3932 12.9231C33.308 12.9921 33.2334 13.0513 33.1482 13.1203C32.9565 13.2583 32.7647 13.3865 32.5517 13.5049C32.3493 13.6232 32.1363 13.7415 31.9233 13.8401C31.6996 13.9387 31.4759 14.0275 31.2523 14.1162C31.0286 14.1951 30.7942 14.2641 30.5599 14.3233C30.3256 14.3824 30.0806 14.4317 29.8463 14.4712C29.6013 14.5106 29.3563 14.5303 29.122 14.55C28.9516 14.5599 28.7811 14.5698 28.6107 14.5698C28.3657 14.5698 28.1208 14.55 27.8864 14.5303C27.6414 14.5106 27.3965 14.481 27.1621 14.4317C26.9171 14.3922 26.6828 14.3331 26.4485 14.2641H26.4378C26.6722 14.2444 26.9065 14.2246 27.1408 14.1852C27.3858 14.1457 27.6201 14.0964 27.8545 14.0373C28.0888 13.9781 28.3231 13.9091 28.5468 13.8302C28.7811 13.7513 29.0048 13.6527 29.2178 13.5541C29.4415 13.4555 29.6439 13.3471 29.8569 13.2287C30.0593 13.1006 30.2617 12.9724 30.4534 12.8343C30.6451 12.6963 30.8262 12.5484 30.9966 12.3906C31.1777 12.2427 31.3374 12.0751 31.4972 11.9075C31.657 11.73 31.8061 11.5525 31.9446 11.375C31.9659 11.3454 31.9872 11.306 32.0085 11.2764C32.115 11.1186 32.2215 10.9609 32.3174 10.8031C32.4345 10.6059 32.541 10.4087 32.6369 10.2016C32.7328 9.99457 32.818 9.7875 32.8925 9.57058C32.9671 9.36351 33.0204 9.14658 33.0736 8.92966C33.1162 8.70287 33.1588 8.48594 33.1801 8.26902C33.2014 8.04223 33.2228 7.81545 33.2228 7.59852C33.2228 7.44076 33.2121 7.28299 33.2015 7.12523C33.1802 6.89844 33.1482 6.68152 33.1163 6.46459C33.0736 6.2378 33.0204 6.02088 32.9565 5.80395C32.8819 5.59689 32.8074 5.37996 32.7222 5.1729C32.6369 4.96583 32.5304 4.75876 32.4239 4.56156C32.3068 4.36435 32.1896 4.16715 32.0618 3.9798C31.9233 3.79246 31.7848 3.61497 31.6357 3.43748C31.4759 3.26986 31.3162 3.10224 31.1458 2.93461C31.0605 2.85573 30.9647 2.76699 30.8688 2.68811C30.3895 2.343 29.8889 2.0176 29.3883 1.7218C29.3137 1.68234 29.2498 1.65278 29.1753 1.62319C28.8238 1.41613 28.4935 1.30761 28.1634 1.20901Z" fill="#E0234E"/>
</svg>
