<svg width="42" height="35" viewBox="0 0 42 35" fill="none" xmlns="http://www.w3.org/2000/svg">
<path d="M20.699 24.6836C31.8348 24.6836 40.8621 21.4674 40.8621 17.5001C40.8621 13.5327 31.8348 10.3165 20.699 10.3165C9.56322 10.3165 0.535889 13.5327 0.535889 17.5001C0.535889 21.4674 9.56322 24.6836 20.699 24.6836Z" stroke="#61DAFB"/>
<path d="M14.0318 21.0918C19.5997 30.0904 27.0984 35.7771 30.7806 33.7934C34.4628 31.8098 32.9341 22.9069 27.3662 13.9083C21.7983 4.90967 14.2997 -0.777044 10.6174 1.20663C6.93524 3.19031 8.46389 12.0932 14.0318 21.0918Z" stroke="#61DAFB"/>
<path d="M14.0318 13.9082C8.46386 22.9068 6.93521 31.8097 10.6174 33.7934C14.2996 35.7771 21.7983 30.0903 27.3662 21.0917C32.9341 12.0931 34.4627 3.19025 30.7805 1.20658C27.0983 -0.777101 19.5996 4.90962 14.0318 13.9082Z" stroke="#61DAFB"/>
</svg>
