<svg width="45" height="40" viewBox="0 0 45 40" fill="none" xmlns="http://www.w3.org/2000/svg">
<path d="M17.2657 1.1534C22.7626 -0.139567 28.8379 0.613871 33.6858 3.35809C39.7915 6.707 43.7775 13.0418 43.8789 19.5628C44.102 26.1487 40.3594 32.679 34.3451 36.2604C27.6512 40.3906 18.3914 40.5489 11.5554 36.6232C4.58776 32.8092 0.520624 25.1162 1.56543 17.7301C2.407 9.92543 8.97943 3.04168 17.2657 1.1534Z" fill="white"/>
<path d="M16.4239 4.3442C26.8096 0.53014 39.5483 7.57202 40.6233 17.7861C42.2969 26.9767 33.9801 36.3162 23.8276 36.5861C14.1722 37.4698 4.84136 29.9626 4.56759 21.0698C3.84749 13.8698 9.02008 6.72561 16.4239 4.3442Z" fill="#212236"/>
<path d="M17.4685 19.0141C22.1238 15.5256 26.6777 11.9162 31.4344 8.53015C28.9394 12.0466 26.3734 15.5162 23.8784 19.0325C21.7383 19.0419 19.5984 19.042 17.4685 19.0141ZM21.4037 20.9581C23.5538 20.9581 25.6939 20.9581 27.8339 20.9861C23.1482 24.4558 18.6146 28.093 13.8477 31.4698C16.3427 27.9534 18.9087 24.4745 21.4037 20.9581Z" fill="white"/>
</svg>
