<svg width="611" height="611" viewBox="0 0 611 611" fill="none" xmlns="http://www.w3.org/2000/svg">
<path fill-rule="evenodd" clip-rule="evenodd" d="M108 0C48.3532 0 0 48.3533 0 108V503C0 562.647 48.3533 611 108 611H503C562.647 611 611 562.647 611 503V108C611 48.3532 562.647 0 503 0H108ZM328.507 235.838V482C328.507 484.209 330.298 486 332.507 486H376.188C378.397 486 380.188 484.209 380.188 482V391.597C380.188 389.387 382.062 387.601 384.27 387.545C546.673 383.458 558.464 135.596 380.188 125H174.095C171.886 125 170.095 126.791 170.095 129V174.981C170.095 177.19 171.886 178.981 174.095 178.981H380.188C500.338 192.283 464.95 340.519 383.76 335.076C381.742 334.94 380.188 333.218 380.188 331.194V290.944C380.188 288.735 381.981 286.949 384.19 286.926C404.395 286.716 413.331 284.202 413.331 258.829C413.331 231.838 399.849 231.838 380.188 231.838H332.507C330.298 231.838 328.507 233.629 328.507 235.838ZM101 235.838V282.944C101 285.153 102.791 286.944 105 286.944H221.708C223.917 286.944 225.708 288.735 225.708 290.944V482C225.708 484.209 227.498 486 229.708 486H274.512C276.721 486 278.512 484.209 278.512 482V235.838C278.512 233.629 276.721 231.838 274.512 231.838H105C102.791 231.838 101 233.629 101 235.838Z" fill="white"/>
</svg>
