<svg width="29" height="20" viewBox="0 0 29 20" fill="none" xmlns="http://www.w3.org/2000/svg">
<g clip-path="url(#clip0_576_3)">
<g clip-path="url(#clip1_576_3)">
<path fill-rule="evenodd" clip-rule="evenodd" d="M25.4468 0.597366C26.6768 0.926623 27.6435 1.89323 27.9727 3.12324C28.5677 5.35042 28.5701 10 28.5701 10C28.5701 10 28.5701 14.6496 27.9727 16.8768C27.6435 18.1068 26.6768 19.0734 25.4468 19.4026C23.2197 20 14.285 20 14.285 20C14.285 20 5.35042 20 3.12323 19.4026C1.89323 19.0734 0.926623 18.1068 0.597366 16.8768C0 14.6496 0 10 0 10C0 10 0 5.35042 0.597366 3.12324C0.926623 1.89323 1.89323 0.926623 3.12323 0.597366C5.35042 0 14.285 0 14.285 0C14.285 0 23.2197 0 25.4468 0.597366ZM18.8477 10.0004L11.4253 14.2854V5.71533L18.8477 10.0004Z" fill="white"/>
</g>
</g>
<defs>
<clipPath id="clip0_576_3">
<rect width="28.57" height="20" fill="white"/>
</clipPath>
<clipPath id="clip1_576_3">
<rect width="28.57" height="20" fill="white"/>
</clipPath>
</defs>
</svg>
